<?xml version="1.0" encoding="UTF-8" standalone="no"?>
<!-- Created with Inkscape (http://www.inkscape.org/) -->

<svg
   xmlns:dc="http://purl.org/dc/elements/1.1/"
   xmlns:cc="http://creativecommons.org/ns#"
   xmlns:rdf="http://www.w3.org/1999/02/22-rdf-syntax-ns#"
   xmlns:svg="http://www.w3.org/2000/svg"
   xmlns="http://www.w3.org/2000/svg"
   xmlns:sodipodi="http://sodipodi.sourceforge.net/DTD/sodipodi-0.dtd"
   xmlns:inkscape="http://www.inkscape.org/namespaces/inkscape"
   id="svg3046"
   version="1.1"
   inkscape:version="0.48.4 r9939"
   width="425.2"
   height="177.1625"
   xml:space="preserve"
   sodipodi:docname="logo juxtalearn-cropped [Converted].ai"><metadata
     id="metadata3052"><rdf:RDF><cc:Work
         rdf:about=""><dc:format>image/svg+xml</dc:format><dc:type
           rdf:resource="http://purl.org/dc/dcmitype/StillImage" /><dc:title></dc:title></cc:Work></rdf:RDF></metadata><defs
     id="defs3050"><clipPath
       clipPathUnits="userSpaceOnUse"
       id="clipPath3060"><path
         d="m 0,141.73 340.16,0 L 340.16,0 0,0 0,141.73 z"
         id="path3062" /></clipPath></defs><sodipodi:namedview
     pagecolor="#ffffff"
     bordercolor="#666666"
     borderopacity="1"
     objecttolerance="10"
     gridtolerance="10"
     guidetolerance="10"
     inkscape:pageopacity="0"
     inkscape:pageshadow="2"
     inkscape:window-width="640"
     inkscape:window-height="480"
     id="namedview3048"
     showgrid="false"
     inkscape:zoom="1.1030103"
     inkscape:cx="212.60001"
     inkscape:cy="88.581253"
     inkscape:window-x="0"
     inkscape:window-y="0"
     inkscape:window-maximized="0"
     inkscape:current-layer="g3054" /><g
     id="g3054"
     inkscape:groupmode="layer"
     inkscape:label="logo juxtalearn-cropped [Converted]"
     transform="matrix(1.25,0,0,-1.25,0,177.1625)"><g
       id="g3056"><g
         id="g3058"
         clip-path="url(#clipPath3060)"><g
           id="g3064"
           transform="translate(155.5825,86.3091)"><path
             d="m 0,0 c -0.76,0 -1.427,-0.255 -1.997,-0.774 -0.572,-0.518 -0.855,-1.17 -0.855,-1.971 0,-0.881 0.275,-1.568 0.834,-2.045 0.559,-0.484 1.231,-0.727 2.018,-0.727 0.754,0 1.414,0.243 1.964,0.734 0.553,0.491 0.828,1.17 0.828,2.038 0,0.895 -0.283,1.575 -0.848,2.045 C 1.379,-0.228 0.734,0 0,0"
             style="fill:#24a49a;fill-opacity:1;fill-rule:nonzero;stroke:none"
             id="path3066" /></g><g
           id="g3068"
           transform="translate(155.5825,78.1694)"><path
             d="M 0,0 C -0.855,0 -1.547,-0.283 -2.065,-0.848 -2.59,-1.413 -2.852,-2.253 -2.852,-3.37 l 0,-19.017 c 0,-1.529 -0.127,-2.591 -0.383,-3.183 -0.256,-0.593 -0.761,-0.888 -1.52,-0.888 -0.136,0 -0.391,0.013 -0.754,0.04 -0.364,0.027 -0.639,0.055 -0.828,0.068 -0.188,0.026 -0.323,0.033 -0.404,0.033 -0.645,0 -1.17,-0.207 -1.567,-0.626 -0.404,-0.423 -0.598,-0.969 -0.598,-1.628 0,-0.894 0.437,-1.574 1.317,-2.044 0.882,-0.471 2.181,-0.707 3.889,-0.707 3.048,0 5.039,1.204 5.974,3.599 0.161,0.39 0.289,1.01 0.383,1.871 0.089,0.86 0.135,1.977 0.135,3.336 l 0,19.146 c 0,1.13 -0.262,1.971 -0.774,2.529 C 1.5,-0.283 0.828,0 0,0"
             style="fill:#24a49a;fill-opacity:1;fill-rule:nonzero;stroke:none"
             id="path3070" /></g><g
           id="g3072"
           transform="translate(180.2119,78.1694)"><path
             d="M 0,0 C -0.842,0 -1.521,-0.283 -2.046,-0.848 -2.571,-1.413 -2.834,-2.253 -2.834,-3.37 l 0,-6.863 c 0,-2.704 -0.154,-4.452 -0.47,-5.254 -0.39,-0.908 -1.003,-1.64 -1.843,-2.206 -0.841,-0.571 -1.736,-0.854 -2.684,-0.854 -0.982,0 -1.756,0.256 -2.328,0.76 -0.571,0.505 -0.968,1.198 -1.191,2.086 -0.221,0.887 -0.33,1.984 -0.33,3.296 l 0,9.035 c 0,1.117 -0.261,1.957 -0.787,2.522 -0.518,0.565 -1.211,0.848 -2.064,0.848 -0.842,0 -1.513,-0.283 -2.025,-0.841 -0.512,-0.558 -0.76,-1.399 -0.76,-2.529 l 0,-11.181 c 0,-2.247 0.349,-3.968 1.049,-5.173 0.591,-0.99 1.433,-1.771 2.509,-2.335 1.083,-0.566 2.307,-0.847 3.673,-0.847 1.13,0 2.132,0.142 3.021,0.424 0.88,0.283 1.687,0.713 2.434,1.292 0.739,0.577 1.453,1.298 2.133,2.151 l 0,-0.726 c 0,-1.002 0.25,-1.789 0.754,-2.349 0.498,-0.557 1.137,-0.833 1.911,-0.833 0.773,0 1.399,0.269 1.889,0.808 0.491,0.538 0.735,1.345 0.735,2.415 l 0,16.354 c 0,1.13 -0.258,1.971 -0.769,2.529 C 1.52,-0.283 0.84,0 0,0"
             style="fill:#24a49a;fill-opacity:1;fill-rule:nonzero;stroke:none"
             id="path3074" /></g><g
           id="g3076"
           transform="translate(199.2227,67.292)"><path
             d="m 0,0 4.527,6.101 c 0.411,0.538 0.718,1.003 0.921,1.393 0.197,0.396 0.297,0.807 0.297,1.231 0,0.592 -0.243,1.103 -0.733,1.52 C 4.521,10.668 3.908,10.877 3.161,10.877 2.516,10.877 1.97,10.696 1.54,10.339 1.109,9.982 0.592,9.39 0,8.563 L -3.56,3.558 -7.213,8.563 c -0.578,0.801 -1.089,1.386 -1.52,1.756 -0.438,0.37 -0.981,0.558 -1.641,0.558 -0.76,0 -1.372,-0.215 -1.844,-0.639 -0.47,-0.43 -0.705,-0.934 -0.705,-1.513 0,-0.741 0.397,-1.615 1.183,-2.624 L -7.213,0 -12.319,-7.313 c -0.772,-1.103 -1.163,-1.95 -1.163,-2.542 0,-0.58 0.255,-1.098 0.76,-1.542 0.504,-0.449 1.11,-0.672 1.83,-0.672 0.646,0 1.178,0.182 1.601,0.538 0.418,0.357 0.936,0.955 1.541,1.796 l 4.19,6.013 4.096,-6.013 c 0.58,-0.813 1.091,-1.407 1.542,-1.775 0.444,-0.371 0.995,-0.559 1.641,-0.559 0.733,0 1.345,0.215 1.843,0.639 0.492,0.43 0.74,0.943 0.74,1.534 0,0.578 -0.398,1.44 -1.197,2.583 L 0,0 z"
             style="fill:#68b4ac;fill-opacity:1;fill-rule:nonzero;stroke:none"
             id="path3078" /></g><g
           id="g3080"
           transform="translate(219.6191,59.9316)"><path
             d="m 0,0 c -0.317,0 -0.762,-0.053 -1.326,-0.169 -0.566,-0.12 -1.015,-0.181 -1.346,-0.181 -0.603,0 -1.043,0.149 -1.31,0.444 -0.27,0.302 -0.432,0.686 -0.499,1.164 -0.06,0.471 -0.088,1.151 -0.088,2.031 l 0,10.38 1.049,0 c 1.118,0 1.978,0.149 2.579,0.451 0.598,0.31 0.9,0.835 0.9,1.595 0,0.592 -0.215,1.077 -0.633,1.453 -0.424,0.383 -1.028,0.572 -1.83,0.572 l -2.065,0 0,3.847 c 0,0.95 -0.052,1.683 -0.155,2.201 -0.106,0.518 -0.349,0.955 -0.733,1.311 -0.578,0.539 -1.23,0.808 -1.943,0.808 -0.511,0 -0.977,-0.121 -1.386,-0.364 -0.416,-0.242 -0.734,-0.552 -0.955,-0.942 -0.216,-0.369 -0.35,-0.813 -0.398,-1.331 -0.053,-0.519 -0.073,-1.232 -0.073,-2.14 l 0,-3.39 -0.618,0 c -0.863,0 -1.508,-0.189 -1.958,-0.572 -0.444,-0.376 -0.673,-0.861 -0.673,-1.453 0,-0.592 0.215,-1.083 0.645,-1.466 0.423,-0.39 1.043,-0.58 1.857,-0.58 l 0.747,0 0,-10.83 c 0,-1.756 0.141,-3.154 0.423,-4.197 0.282,-1.049 0.882,-1.871 1.79,-2.463 0.907,-0.591 2.247,-0.888 4.01,-0.888 1.856,0 3.282,0.242 4.277,0.728 0.99,0.476 1.486,1.176 1.486,2.085 0,0.538 -0.181,0.988 -0.543,1.351 C 0.86,-0.182 0.457,0 0,0"
             style="fill:#6dc4cd;fill-opacity:1;fill-rule:nonzero;stroke:none"
             id="path3082" /></g><g
           id="g3084"
           transform="translate(241.7441,63.0596)"><path
             d="m 0,0 0.033,3.074 c 0.007,0.93 0.014,2.053 0.014,3.371 0,2.099 -0.295,3.781 -0.881,5.045 -0.586,1.265 -1.588,2.193 -3.007,2.779 -1.42,0.585 -3.37,0.881 -5.854,0.881 -2.219,0 -4.069,-0.303 -5.554,-0.908 -1.487,-0.605 -2.584,-1.379 -3.291,-2.314 -0.7,-0.942 -1.056,-1.904 -1.056,-2.9 0,-0.632 0.236,-1.15 0.699,-1.56 0.458,-0.405 1.009,-0.605 1.643,-0.605 0.699,0 1.155,0.127 1.371,0.383 0.215,0.255 0.578,0.78 1.097,1.581 0.517,0.8 1.137,1.399 1.863,1.796 0.72,0.403 1.796,0.598 3.228,0.598 1.669,0 2.773,-0.35 3.299,-1.042 0.53,-0.7 0.833,-1.789 0.901,-3.276 C -6.68,6.56 -7.776,6.264 -8.792,6.021 -9.808,5.786 -11.019,5.517 -12.438,5.229 c -1.42,-0.291 -2.315,-0.479 -2.671,-0.56 -1.71,-0.37 -3.055,-1.103 -4.03,-2.191 -0.983,-1.085 -1.466,-2.403 -1.466,-3.944 0,-1.149 0.295,-2.207 0.888,-3.189 0.591,-0.975 1.44,-1.748 2.536,-2.321 1.09,-0.571 2.362,-0.861 3.808,-0.861 1.586,0 3.014,0.263 4.29,0.795 1.279,0.53 2.599,1.324 3.957,2.387 0.641,-1.03 1.238,-1.822 1.803,-2.367 0.565,-0.546 1.136,-0.815 1.716,-0.815 0.685,0 1.304,0.235 1.849,0.713 0.546,0.478 0.815,1.002 0.815,1.581 0,0.33 -0.175,1.069 -0.525,2.221 C 0.183,-2.172 0,-1.063 0,0 m -5.495,2.705 c 0,-1.957 -0.257,-3.363 -0.768,-4.219 -0.437,-0.773 -1.13,-1.399 -2.071,-1.89 -0.949,-0.491 -1.978,-0.734 -3.096,-0.734 -1.049,0 -1.889,0.297 -2.543,0.903 -0.645,0.598 -0.967,1.325 -0.967,2.18 0,0.826 0.275,1.466 0.827,1.93 0.55,0.464 1.13,0.773 1.735,0.929 0.605,0.161 1.695,0.41 3.276,0.747 1.581,0.336 2.78,0.659 3.607,0.961 l 0,-0.807 z"
             style="fill:#5ec1d2;fill-opacity:1;fill-rule:evenodd;stroke:none"
             id="path3086" /></g><g
           id="g3088"
           transform="translate(248.0957,86.5581)"><path
             d="m 0,0 c -0.849,0 -1.527,-0.29 -2.032,-0.868 -0.504,-0.578 -0.761,-1.433 -0.761,-2.563 l 0,-24.473 c 0,-1.104 0.263,-1.951 0.781,-2.544 0.518,-0.591 1.19,-0.887 2.012,-0.887 0.84,0 1.526,0.29 2.057,0.861 0.532,0.572 0.795,1.426 0.795,2.57 l 0,24.473 c 0,1.144 -0.256,2.005 -0.781,2.577 C 1.547,-0.282 0.854,0 0,0"
             style="fill:#5ec1d2;fill-opacity:1;fill-rule:nonzero;stroke:none"
             id="path3090" /></g><g
           id="g3092"
           transform="translate(273.7578,65.9395)"><path
             d="m 0,0 c 0.809,0.424 1.219,1.346 1.219,2.758 0,1.534 -0.397,3.034 -1.177,4.507 -0.787,1.481 -1.972,2.677 -3.546,3.613 -1.58,0.928 -3.472,1.393 -5.677,1.393 -1.696,0 -3.236,-0.277 -4.63,-0.814 -1.391,-0.546 -2.562,-1.333 -3.511,-2.349 -0.953,-1.022 -1.674,-2.24 -2.172,-3.673 -0.498,-1.419 -0.748,-2.974 -0.748,-4.641 0,-3.538 1.009,-6.344 3.023,-8.408 2.009,-2.067 4.829,-3.103 8.454,-3.103 1.581,0 2.988,0.209 4.205,0.62 1.218,0.416 2.234,0.934 3.041,1.56 0.807,0.633 1.406,1.284 1.81,1.964 0.397,0.68 0.598,1.278 0.598,1.79 0,0.579 -0.182,1.021 -0.538,1.345 -0.364,0.317 -0.829,0.471 -1.406,0.471 -0.539,0 -0.955,-0.122 -1.244,-0.37 -0.7,-0.659 -1.272,-1.184 -1.717,-1.567 -0.437,-0.391 -0.922,-0.753 -1.446,-1.09 -0.524,-0.336 -1.062,-0.586 -1.622,-0.739 -0.558,-0.163 -1.177,-0.244 -1.849,-0.244 -1.008,0 -1.923,0.249 -2.757,0.748 -0.835,0.497 -1.501,1.23 -2.005,2.213 -0.506,0.975 -0.769,2.105 -0.773,3.389 l 11.031,0 C -1.956,-0.627 -0.82,-0.418 0,0 m -14.468,2.577 c 0.188,1.903 0.739,3.336 1.641,4.312 0.9,0.969 2.058,1.452 3.465,1.452 1.472,0 2.656,-0.477 3.564,-1.432 0.901,-0.962 1.421,-2.402 1.561,-4.332 l -10.231,0 z"
             style="fill:#5ec1d2;fill-opacity:1;fill-rule:evenodd;stroke:none"
             id="path3094" /></g><g
           id="g3096"
           transform="translate(298.0156,63.0596)"><path
             d="m 0,0 0.028,3.074 c 0.007,0.93 0.014,2.053 0.014,3.371 0,2.099 -0.296,3.781 -0.882,5.045 -0.585,1.265 -1.587,2.193 -3.006,2.779 -1.421,0.585 -3.37,0.881 -5.854,0.881 -2.212,0 -4.069,-0.303 -5.556,-0.908 -1.485,-0.605 -2.583,-1.379 -3.289,-2.314 -0.7,-0.942 -1.05,-1.904 -1.05,-2.9 0,-0.632 0.23,-1.15 0.693,-1.56 0.457,-0.405 1.003,-0.605 1.643,-0.605 0.704,0 1.155,0.127 1.371,0.383 0.215,0.255 0.578,0.78 1.096,1.581 0.519,0.8 1.138,1.399 1.864,1.796 0.719,0.403 1.796,0.598 3.228,0.598 1.669,0 2.772,-0.35 3.304,-1.042 0.532,-0.7 0.828,-1.789 0.894,-3.276 C -6.685,6.56 -7.781,6.264 -8.798,6.021 -9.807,5.786 -11.023,5.517 -12.444,5.229 c -1.419,-0.291 -2.308,-0.479 -2.663,-0.56 -1.717,-0.37 -3.055,-1.103 -4.037,-2.191 -0.975,-1.085 -1.466,-2.403 -1.466,-3.944 0,-1.149 0.296,-2.207 0.888,-3.189 0.591,-0.975 1.439,-1.748 2.536,-2.321 1.089,-0.571 2.361,-0.861 3.808,-0.861 1.586,0 3.019,0.263 4.29,0.795 1.279,0.53 2.597,1.324 3.964,2.387 0.631,-1.03 1.231,-1.822 1.796,-2.367 0.564,-0.546 1.137,-0.815 1.714,-0.815 0.687,0 1.306,0.235 1.85,0.713 0.546,0.478 0.816,1.002 0.816,1.581 0,0.33 -0.175,1.069 -0.525,2.221 C 0.175,-2.172 0,-1.063 0,0 m -5.502,2.705 c 0,-1.957 -0.248,-3.363 -0.76,-4.219 -0.443,-0.773 -1.136,-1.399 -2.079,-1.89 -0.948,-0.491 -1.972,-0.734 -3.088,-0.734 -1.049,0 -1.897,0.297 -2.549,0.903 -0.646,0.598 -0.967,1.325 -0.967,2.18 0,0.826 0.273,1.466 0.825,1.93 0.553,0.464 1.131,0.773 1.737,0.929 0.605,0.161 1.695,0.41 3.277,0.747 1.58,0.336 2.778,0.659 3.604,0.961 l 0,-0.807 z"
             style="fill:#5ec1d2;fill-opacity:1;fill-rule:evenodd;stroke:none"
             id="path3098" /></g><g
           id="g3100"
           transform="translate(315.3604,77.2813)"><path
             d="M 0,0 C -1.11,0.592 -2.262,0.888 -3.451,0.888 -4.636,0.888 -5.584,0.592 -6.29,0 -7.003,-0.592 -7.695,-1.466 -8.369,-2.63 -8.409,-1.466 -8.64,-0.592 -9.056,0 c -0.41,0.592 -1.082,0.888 -2.018,0.888 -1.835,0 -2.751,-1.271 -2.751,-3.801 l 0,-15.714 c 0,-1.13 0.262,-1.986 0.787,-2.563 0.517,-0.579 1.19,-0.869 2.005,-0.869 0.819,0 1.508,0.29 2.044,0.862 0.539,0.572 0.808,1.426 0.808,2.57 l 0,4.716 c 0,1.694 0.055,3.128 0.161,4.306 0.116,1.176 0.31,2.199 0.599,3.053 0.29,0.847 0.7,1.494 1.225,1.93 0.523,0.431 1.196,0.653 2.024,0.653 0.606,0 1.306,-0.127 2.1,-0.384 0.787,-0.255 1.292,-0.383 1.492,-0.383 0.552,0 1.07,0.222 1.542,0.673 0.476,0.444 0.714,1.015 0.714,1.709 C 1.676,-1.379 1.115,-0.592 0,0"
             style="fill:#47acdd;fill-opacity:1;fill-rule:nonzero;stroke:none"
             id="path3102" /></g><g
           id="g3104"
           transform="translate(338.7979,72.2158)"><path
             d="m 0,0 c -0.115,0.8 -0.351,1.54 -0.728,2.233 -0.577,1.184 -1.452,2.1 -2.624,2.752 -1.169,0.645 -2.502,0.969 -3.988,0.969 -1.533,0 -2.886,-0.31 -4.064,-0.923 -1.177,-0.611 -2.26,-1.573 -3.255,-2.879 l 0,0.68 c 0,0.672 -0.121,1.244 -0.363,1.716 -0.236,0.464 -0.559,0.82 -0.956,1.056 -0.403,0.229 -0.854,0.35 -1.345,0.35 -0.814,0 -1.453,-0.269 -1.925,-0.794 -0.47,-0.532 -0.698,-1.339 -0.698,-2.408 l 0,-16.314 c 0,-1.104 0.262,-1.951 0.78,-2.543 0.524,-0.591 1.197,-0.888 2.005,-0.888 0.841,0 1.526,0.29 2.057,0.861 0.533,0.572 0.794,1.426 0.794,2.57 l 0,7.071 c 0,2.301 0.142,3.875 0.417,4.715 0.384,1.043 0.989,1.87 1.817,2.469 0.827,0.599 1.75,0.901 2.751,0.901 1.542,0 2.578,-0.497 3.088,-1.479 0.519,-0.99 0.78,-2.408 0.78,-4.272 l 0,-9.405 c 0,-1.104 0.263,-1.951 0.781,-2.543 0.526,-0.591 1.211,-0.888 2.052,-0.888 0.828,0 1.492,0.29 2.012,0.868 0.517,0.577 0.773,1.434 0.773,2.563 l 0,10.501 C 0.161,-1.816 0.107,-0.801 0,0"
             style="fill:#47acdd;fill-opacity:1;fill-rule:nonzero;stroke:none"
             id="path3106" /></g><g
           id="g3108"
           transform="translate(66.791,115.9492)"><path
             d="m 0,0 c -25.718,0 -46.565,-20.847 -46.565,-46.566 0,-25.718 20.847,-46.564 46.565,-46.564 25.718,0 46.565,20.846 46.565,46.564 C 46.565,-20.847 25.718,0 0,0"
             style="fill:#47acdd;fill-opacity:1;fill-rule:nonzero;stroke:none"
             id="path3110" /></g><g
           id="g3112"
           transform="translate(127.7124,92.1543)"><path
             d="m 0,0 c -3.733,7.536 -9.015,13.973 -15.405,19.072 -3.116,4.265 -6.768,8.141 -10.858,11.483 -10.69,8.725 -23.948,13.529 -37.342,13.529 -4.239,0 -8.497,-0.478 -12.654,-1.42 -20.41,-4.608 -35.889,-19.724 -42.462,-38.721 -7.992,-14.174 -10.179,-31.585 -4.582,-48.219 5.046,-14.995 15.607,-26.944 28.955,-33.886 9.787,-6.559 21.687,-10.239 34.402,-10.239 10.091,0 20.302,2.416 29.532,6.99 C 0.908,-65.898 14.551,-29.371 0,0 m -76.01,41.541 c 4.083,0.922 8.254,1.392 12.405,1.392 17.315,0 33.447,-8.133 44.526,-21.163 -2.381,1.607 -4.883,3.041 -7.501,4.298 -9.552,8.618 -21.641,13.778 -34.772,13.778 -8.631,0 -16.811,-2.227 -24.117,-6.203 -5.146,-2.065 -10.016,-4.91 -14.409,-8.483 -1.817,-1.472 -3.532,-3.068 -5.147,-4.756 -3.922,-3.269 -7.379,-7.016 -10.299,-11.113 7.366,15.903 21.406,28.207 39.314,32.25 m 72.889,-68.085 c -0.66,-7.764 -3.008,-15.057 -6.654,-21.521 0.31,0.835 0.606,1.675 0.882,2.529 3.767,8.066 5.845,17.047 5.886,26.357 0.128,-2.421 0.094,-4.877 -0.114,-7.365 m -109.465,-29.217 c -2.368,4.79 -4.01,9.823 -4.911,14.969 1.803,-4.475 4.111,-8.72 6.842,-12.655 5.576,-11.759 14.322,-21.311 24.944,-27.157 -2.772,0.941 -5.456,2.085 -8.033,3.424 -7.951,5.341 -14.483,12.621 -18.842,21.419 m 88.57,77.719 c -3.081,2.281 -6.411,4.252 -9.957,5.86 2.315,-0.774 4.575,-1.682 6.755,-2.718 1.103,-1.003 2.173,-2.052 3.202,-3.142 m 14.053,-67.07 c -1.534,-3.276 -3.344,-6.391 -5.416,-9.317 0.457,0.834 0.908,1.681 1.333,2.544 7.022,14.207 8.106,30.325 3.04,45.373 -1.265,3.761 -2.879,7.334 -4.796,10.677 -1.084,2.549 -2.355,5.025 -3.815,7.414 -3.249,5.32 -7.278,9.935 -11.9,13.756 4.339,-2.3 8.309,-5.173 11.82,-8.503 8.18,-10.878 13.124,-24.984 13.124,-40.377 0,-7.581 -1.197,-14.846 -3.39,-21.567 m -107.225,25.159 c -0.06,-1.19 -0.093,-2.387 -0.093,-3.592 0,-7.749 1.237,-15.177 3.49,-22.044 -1.923,3.74 -3.43,7.716 -4.48,11.86 -0.208,4.568 0.155,9.189 1.083,13.776 m 23.068,46.257 c 2.658,1.386 5.45,2.583 8.375,3.565 5.995,2.019 12.203,3.041 18.474,3.041 2.159,0 4.304,-0.128 6.417,-0.363 -11.033,-0.834 -21.527,-4.984 -30.178,-11.947 -10.125,-6.815 -18.07,-16.145 -23.008,-27.077 3.337,13.252 10.448,24.715 19.92,32.781 m 57.463,1.413 c 5.913,-3.915 11.026,-9.049 15.062,-15.197 -6.861,8.302 -15.862,14.591 -26.013,18.171 0.484,-0.047 0.961,-0.102 1.446,-0.155 3.296,-0.654 6.472,-1.601 9.505,-2.819 m 14.518,-90.077 c -1.426,-1.406 -2.927,-2.731 -4.501,-3.983 -8.597,-5.832 -18.923,-9.249 -29.902,-9.249 -1.527,0 -3.075,0.067 -4.602,0.195 l -0.113,0.012 c 10.373,1.131 20.396,5.309 28.711,12.07 9.963,8.092 17.006,19.556 19.852,32.269 1.97,8.821 1.89,17.767 -0.149,26.251 0.263,-0.687 0.512,-1.38 0.748,-2.079 4.964,-14.76 3.907,-30.569 -2.981,-44.5 -1.964,-3.97 -4.339,-7.635 -7.063,-10.986 m 8.321,31.57 c -5.67,-25.36 -28.012,-43.768 -53.124,-43.768 l -0.135,0.009 c -11.921,2.341 -22.616,8.591 -30.569,17.995 -9.255,10.937 -13.682,24.816 -12.471,39.071 1.298,15.358 9.189,28.852 20.712,37.779 2.147,1.387 4.387,2.665 6.714,3.814 9.068,4.494 19.106,6.869 29.021,6.869 0.431,0 0.861,-0.013 1.286,-0.02 14.94,-3.962 27.782,-13.764 35.546,-27.292 4.561,-10.744 5.644,-22.718 3.02,-34.457 m -100.732,20.048 c 3.329,8.92 8.65,16.891 15.519,23.45 -7.01,-8.516 -11.288,-18.956 -12.237,-30.09 -1.231,-14.565 3.289,-28.739 12.742,-39.913 6.76,-7.999 15.465,-13.768 25.22,-16.857 -1.681,0.201 -3.363,0.49 -5.032,0.86 -13.495,3.021 -24.628,11.087 -31.981,21.87 -3.714,8.389 -5.812,17.861 -5.812,27.877 0,3.6 0.276,7.132 0.794,10.569 0.248,0.747 0.504,1.486 0.787,2.234 m 35.97,-63.673 c 3.726,-0.834 7.54,-1.266 11.335,-1.284 1.971,-0.385 3.976,-0.667 6.008,-0.842 1.554,-0.134 3.134,-0.194 4.695,-0.194 5.873,0 11.645,0.941 17.12,2.751 -3.101,-1.339 -6.357,-2.402 -9.761,-3.168 -4.077,-0.923 -8.247,-1.393 -12.398,-1.393 -11.718,0 -22.885,3.727 -32.324,10.163 4.655,-2.736 9.795,-4.795 15.325,-6.033 m 39.811,104.809 c -4.642,2.677 -9.707,4.662 -15.076,5.859 -3.826,0.861 -7.742,1.292 -11.645,1.292 -3.403,0 -6.794,-0.343 -10.137,-0.996 4.554,1.399 9.337,2.146 14.275,2.146 11.524,0 22.219,-4.063 31.053,-10.999 -2.732,1.091 -5.557,1.998 -8.47,2.698 m -26.721,6.001 c 3.815,0 7.65,-0.424 11.397,-1.265 3.935,-0.875 7.696,-2.199 11.247,-3.909 -1.035,0.175 -2.078,0.323 -3.135,0.445 -1.97,0.39 -3.976,0.679 -6.02,0.854 -0.855,0.067 -1.709,0.115 -2.563,0.148 -4.117,0.908 -8.369,1.393 -12.707,1.393 -6.392,0 -12.729,-1.043 -18.836,-3.102 -1.313,-0.437 -2.591,-0.922 -3.849,-1.446 1.547,1.083 3.142,2.079 4.783,2.98 6.169,2.523 12.822,3.902 19.683,3.902 m -29.269,-9.129 c -0.35,-0.188 -0.7,-0.37 -1.05,-0.565 0.634,0.444 1.279,0.874 1.932,1.292 -0.297,-0.243 -0.593,-0.485 -0.882,-0.727 m -3.842,-3.572 c -9.195,-9.324 -15.667,-22.045 -17.86,-36.408 -1.675,-5.092 -2.651,-10.272 -2.934,-15.426 -0.988,6.708 -0.787,13.731 0.788,20.775 2.375,10.621 7.675,20.006 14.881,27.352 1.627,1.319 3.344,2.563 5.125,3.707 M -119.73,-7.117 c -0.68,-3.053 -1.11,-6.108 -1.299,-9.135 0.048,6.834 1.211,13.488 3.358,19.717 1.829,3.236 3.968,6.304 6.397,9.149 -3.976,-5.947 -6.869,-12.64 -8.456,-19.731 m 13.347,-51.819 c 2.28,-2.617 4.769,-5.039 7.46,-7.232 10.682,-8.718 23.942,-13.527 37.342,-13.527 4.238,0 8.49,0.476 12.655,1.418 7.21,1.629 13.81,4.575 19.623,8.544 -5.584,-4.789 -12.083,-8.51 -19.26,-10.925 -5.995,-2.019 -12.204,-3.034 -18.466,-3.034 -4.144,0 -8.201,0.444 -12.137,1.285 -11.119,4.359 -20.632,12.68 -27.217,23.471 m 39.354,-25.906 c 6.39,0 12.721,1.043 18.828,3.094 9.715,3.269 18.218,8.881 24.918,16.286 1.265,0.963 2.496,1.985 3.687,3.067 1.035,0.949 2.025,1.939 2.98,2.956 -9.936,-15.931 -26.283,-26.352 -44.736,-26.352 -3.559,0 -7.044,0.396 -10.414,1.137 1.568,-0.128 3.149,-0.188 4.737,-0.188 m 53.104,30.494 c 0.201,0.302 0.409,0.598 0.605,0.901 l -0.12,-0.248 c -0.163,-0.215 -0.317,-0.438 -0.485,-0.653 m 7.487,18.735 c 0.666,3.909 1.016,7.939 1.016,12.068 0,12.93 -3.438,24.965 -9.325,35.003 3.943,-4.905 7.024,-10.502 9.056,-16.543 2.341,-10.488 1.93,-20.941 -0.747,-30.528 m -12.405,53.218 c -1.507,1.992 -3.114,3.882 -4.824,5.645 2.563,-1.44 4.999,-3.075 7.286,-4.877 3.128,-4.238 5.732,-8.914 7.736,-13.933 -2.717,4.885 -6.162,9.325 -10.198,13.165 m -103.37,-61.519 c -4.763,14.168 -3.774,28.893 1.689,41.634 -2.126,-9.088 -2.28,-18.85 -0.068,-28.63 0.371,-1.628 0.807,-3.236 1.299,-4.824 0.558,-7.084 2.455,-14.033 5.678,-20.538 2.912,-5.873 6.767,-11.079 11.355,-15.505 -9.062,6.915 -16.125,16.493 -19.953,27.863 m 91.288,-36.468 c -9.068,-4.495 -19.105,-6.868 -29.021,-6.868 -8.799,0 -17.202,1.796 -24.756,5.112 1.702,-0.539 3.438,-0.996 5.2,-1.372 5.698,-2.22 11.8,-3.431 18.15,-3.431 20.813,0 39.004,12.957 48.638,32.115 6.122,8.139 9.861,17.867 10.735,28.187 0.647,7.622 -0.315,15.022 -2.602,21.857 l -0.021,0.081 c -1.621,7.191 -4.48,14.012 -8.348,20.148 4.85,-4.501 8.9,-9.863 11.92,-15.951 14.269,-28.812 0.862,-64.642 -29.895,-79.878"
             style="fill:#47acdd;fill-opacity:1;fill-rule:evenodd;stroke:none"
             id="path3114" /></g><g
           id="g3116"
           transform="translate(50.3706,88.0449)"><path
             d="m 0,0 c -0.721,0.8 -1.696,1.205 -2.9,1.205 -1.19,0 -2.152,-0.412 -2.859,-1.212 -0.686,-0.78 -1.036,-1.938 -1.036,-3.438 l 0,-18.438 c 0,-6.022 -2.96,-6.022 -3.929,-6.022 -0.989,0 -1.742,0.21 -2.24,0.626 -0.538,0.437 -0.909,0.948 -1.131,1.56 -0.248,0.667 -0.504,1.589 -0.752,2.726 -0.263,1.19 -0.646,2.065 -1.171,2.656 -0.565,0.632 -1.386,0.955 -2.435,0.955 -1.07,0 -1.964,-0.329 -2.658,-0.987 -0.699,-0.667 -1.056,-1.622 -1.056,-2.84 0,-1.043 0.155,-2.153 0.472,-3.303 0.316,-1.143 0.726,-2.174 1.237,-3.06 0.975,-1.69 2.288,-2.928 3.895,-3.687 1.574,-0.741 3.553,-1.117 5.886,-1.117 2.59,0 4.823,0.538 6.647,1.608 1.843,1.083 3.182,2.617 3.983,4.555 0.47,1.13 0.78,2.266 0.914,3.376 0.128,1.076 0.196,2.402 0.196,3.929 l 0,17.463 C 1.063,-1.945 0.705,-0.787 0,0"
             style="fill:#ffffff;fill-opacity:1;fill-rule:nonzero;stroke:none"
             id="path3118" /></g><g
           id="g3120"
           transform="translate(76.7139,59.7627)"><path
             d="m 0,0 -5.389,7.73 4.736,6.378 c 0.485,0.625 0.835,1.157 1.07,1.621 0.256,0.511 0.39,1.05 0.39,1.608 0,0.813 -0.336,1.52 -1.003,2.092 -0.638,0.546 -1.446,0.821 -2.394,0.821 -0.841,0 -1.561,-0.235 -2.14,-0.713 -0.518,-0.432 -1.103,-1.104 -1.789,-2.066 l -3.471,-4.877 -3.572,4.884 c -0.666,0.922 -1.245,1.587 -1.756,2.024 -0.579,0.498 -1.305,0.748 -2.166,0.748 -0.975,0 -1.783,-0.282 -2.395,-0.848 -0.632,-0.579 -0.955,-1.271 -0.955,-2.065 0,-0.955 0.463,-2.011 1.405,-3.216 L -14.686,7.73 -20.074,0 c -0.928,-1.317 -1.373,-2.333 -1.373,-3.106 0,-0.801 0.337,-1.515 1.009,-2.114 0.66,-0.578 1.46,-0.874 2.382,-0.874 0.848,0 1.561,0.242 2.126,0.721 0.497,0.43 1.076,1.108 1.782,2.085 l 4.158,5.96 4.063,-5.967 c 0.673,-0.941 1.258,-1.615 1.79,-2.059 0.591,-0.492 1.318,-0.74 2.159,-0.74 0.935,0 1.742,0.283 2.388,0.834 0.666,0.579 1.009,1.285 1.009,2.106 C 1.419,-2.393 0.956,-1.364 0,0"
             style="fill:#ffffff;fill-opacity:1;fill-rule:nonzero;stroke:none"
             id="path3122" /></g><g
           id="g3124"
           transform="translate(105.6606,59.9521)"><path
             d="m 0,0 c -0.679,0.619 -1.655,0.936 -2.879,0.936 l -13.139,0 0,23.712 c 0,1.521 -0.369,2.685 -1.096,3.458 -0.733,0.793 -1.696,1.191 -2.865,1.191 -1.165,0 -2.113,-0.404 -2.839,-1.204 -0.7,-0.787 -1.057,-1.945 -1.057,-3.445 l 0,-25.678 c 0,-1.594 0.377,-2.79 1.124,-3.545 0.747,-0.759 1.944,-1.143 3.565,-1.143 l 16.307,0 c 1.238,0 2.212,0.302 2.885,0.902 0.701,0.618 1.057,1.425 1.057,2.402 C 1.063,-1.453 0.707,-0.639 0,0"
             style="fill:#ffffff;fill-opacity:1;fill-rule:nonzero;stroke:none"
             id="path3126" /></g></g></g></g></svg>